# xmcd
#
# Track frame offsets: 
#        150
#        7318
#        17023
#        26848
#        39829
#        40836
#        52737
#        63920
#        68879
#        79567
#        91188
#        102134
#        103240
#        114949
#        124290
#        141826
#        142775
#        153227
#        165758
#        175846
#        180251
#        192248
#        201902
#        213886
#        227732
#        230771
#        235814
#        247214
#        255465
#        263459
#        271185
#        279517
#        297435
#        306810
#
# Disc length: 4219 seconds
#
# Revision: 0
# Processed by: cddbd v1.5.2PL0 Copyright (c) Steve Scherf et al.
# Submitted via: ExactAudioCopy v0.99pb5
#
DISCID=c7107922
DTITLE=The Beatles  - Telecasts - Disc 2
DYEAR=1900
DGENRE=
TTITLE0=Intro
TTITLE1=All My Loving
TTITLE2=Till There Was You
TTITLE3=She Loves You
TTITLE4=Outro\\intro
TTITLE5=I Saw Her Standing There
TTITLE6=I Want To Hold Your Hand
TTITLE7=Outro
TTITLE8=She Loves You
TTITLE9=This Boy
TTITLE10=All My Loving
TTITLE11=Intro
TTITLE12=I Saw Her Standing There
TTITLE13=From Me To You
TTITLE14=I Want To Hold Your Hand
TTITLE15=Intro
TTITLE16=She Loves You
TTITLE17=This Boy
TTITLE18=All My Loving
TTITLE19=Intro
TTITLE20=I Saw Her Standing There
TTITLE21=From Me To You
TTITLE22=I Want To Hold Your Hand
TTITLE23=Skit #1
TTITLE24=Skit #2
TTITLE25=Skit #3
TTITLE26=Twist And Shout
TTITLE27=Roll Over Beethoven
TTITLE28=I Wanna Be Your Man
TTITLE29=Long Tall Sally
TTITLE30=Boys
TTITLE31=Medley Of Hits
TTITLE32=Can't Buy Me Love
TTITLE33=Shout
EXTD=
EXTT0=
EXTT1=
EXTT2=
EXTT3=
EXTT4=
EXTT5=
EXTT6=
EXTT7=
EXTT8=
EXTT9=
EXTT10=
EXTT11=
EXTT12=
EXTT13=
EXTT14=
EXTT15=
EXTT16=
EXTT17=
EXTT18=
EXTT19=
EXTT20=
EXTT21=
EXTT22=
EXTT23=
EXTT24=
EXTT25=
EXTT26=
EXTT27=
EXTT28=
EXTT29=
EXTT30=
EXTT31=
EXTT32=
EXTT33=
PLAYORDER=
